<svg width="24" height="24" viewBox="0 0 24 24" fill="none" xmlns="http://www.w3.org/2000/svg">
<path d="M5.64 17.625H3C2.76718 17.6251 2.54005 17.553 2.34987 17.4187C2.15969 17.2844 2.01581 17.0944 1.938 16.875H5.29505C5.3945 16.875 5.48988 16.8355 5.56021 16.7652C5.63054 16.6948 5.67005 16.5995 5.67005 16.5C5.67005 16.4005 5.63054 16.3052 5.56021 16.2348C5.48988 16.1645 5.3945 16.125 5.29505 16.125H1.5C1.45075 16.125 1.40197 16.1347 1.35646 16.1535C1.31095 16.1723 1.2696 16.1999 1.23477 16.2348C1.19994 16.2696 1.17232 16.3109 1.15349 16.3565C1.13465 16.402 1.12497 16.4507 1.125 16.5C1.12473 16.7463 1.17304 16.9902 1.26717 17.2179C1.3613 17.4455 1.4994 17.6523 1.67356 17.8264C1.84773 18.0006 2.05454 18.1387 2.28215 18.2328C2.50975 18.327 2.7537 18.3753 3 18.375H5.64C5.73946 18.375 5.83484 18.3355 5.90517 18.2652C5.97549 18.1948 6.015 18.0995 6.015 18C6.015 17.9005 5.97549 17.8052 5.90517 17.7348C5.83484 17.6645 5.73946 17.625 5.64 17.625Z" fill="#212121"/>
<path d="M22.501 16.125H18.7063C18.6068 16.125 18.5115 16.1645 18.4411 16.2348C18.3708 16.3052 18.3313 16.4005 18.3313 16.5C18.3313 16.5995 18.3708 16.6948 18.4411 16.7652C18.5115 16.8355 18.6068 16.875 18.7063 16.875H22.0615C21.9838 17.0942 21.8402 17.284 21.6503 17.4183C21.4604 17.5526 21.2336 17.6248 21.001 17.625H18.3613C18.2619 17.625 18.1665 17.6645 18.0962 17.7348C18.0258 17.8052 17.9863 17.9005 17.9863 18C17.9863 18.0995 18.0258 18.1948 18.0962 18.2652C18.1665 18.3355 18.2619 18.375 18.3613 18.375H21.001C21.4981 18.3745 21.9747 18.1768 22.3262 17.8252C22.6777 17.4737 22.8755 16.9971 22.876 16.5C22.876 16.4507 22.8663 16.402 22.8475 16.3565C22.8287 16.3109 22.801 16.2696 22.7662 16.2348C22.7314 16.1999 22.69 16.1723 22.6445 16.1535C22.599 16.1347 22.5502 16.125 22.501 16.125Z" fill="#212121"/>
<path d="M5.43493 6.79981L5.36719 6.86719C3.61571 8.631 2.63038 11.0143 2.625 13.5V15C2.62497 15.0493 2.63465 15.098 2.65349 15.1435C2.67232 15.1891 2.69994 15.2304 2.73477 15.2652C2.7696 15.3001 2.81095 15.3277 2.85646 15.3465C2.90197 15.3654 2.95075 15.375 3 15.375H5.29504C5.3945 15.375 5.48988 15.3355 5.56021 15.2652C5.63054 15.1948 5.67004 15.0995 5.67004 15C5.67004 14.9005 5.63054 14.8052 5.56021 14.7348C5.48988 14.6645 5.3945 14.625 5.29504 14.625H3.375V13.5C3.37974 11.2142 4.28527 9.02231 5.89526 7.39966L5.96521 7.33008C6.0006 7.29539 6.02877 7.25403 6.04808 7.20839C6.0674 7.16275 6.07747 7.11373 6.07772 7.06417C6.07797 7.01461 6.06839 6.9655 6.04954 6.91966C6.03069 6.87383 6.00294 6.83218 5.9679 6.79714C5.93286 6.7621 5.89121 6.73435 5.84538 6.7155C5.79954 6.69665 5.75043 6.68707 5.70087 6.68732C5.65131 6.68757 5.60229 6.69764 5.55665 6.71696C5.51101 6.73627 5.46962 6.76441 5.43493 6.79981Z" fill="#212121"/>
<path d="M8.27713 5.72273C9.59138 5.09115 11.0444 4.80345 12.5002 4.88658C13.9559 4.96971 15.3668 5.42095 16.6006 6.19804C17.8344 6.97513 18.8508 8.05264 19.5546 9.32967C20.2584 10.6067 20.6266 12.0415 20.6247 13.4996V14.6246H18.705C18.6055 14.6246 18.5102 14.6641 18.4398 14.7344C18.3695 14.8048 18.33 14.9001 18.33 14.9996C18.33 15.099 18.3695 15.1944 18.4398 15.2648C18.5102 15.3351 18.6055 15.3746 18.705 15.3746H20.9997C21.0489 15.3746 21.0977 15.3649 21.1432 15.3461C21.1887 15.3273 21.2301 15.2996 21.2649 15.2648C21.2997 15.23 21.3273 15.1886 21.3462 15.1431C21.365 15.0976 21.3747 15.0488 21.3747 14.9996V13.4996C21.3691 11.0136 20.3835 8.63004 18.6317 6.86604C17.3272 5.56028 15.6652 4.67011 13.8554 4.30783C13.8106 3.84537 13.5948 3.4163 13.2502 3.10466C12.9056 2.79302 12.457 2.62127 11.9924 2.62306C11.5278 2.62485 11.0806 2.80004 10.7384 3.11432C10.3962 3.42861 10.1837 3.85933 10.1424 4.32212C9.38512 4.47217 8.64934 4.71556 7.95194 5.04671C7.90738 5.06795 7.86745 5.09779 7.83445 5.1345C7.80144 5.17121 7.776 5.21407 7.7596 5.26063C7.74319 5.30719 7.73614 5.35653 7.73884 5.40583C7.74155 5.45512 7.75396 5.50339 7.77536 5.54788C7.79676 5.59237 7.82673 5.63219 7.86355 5.66507C7.90037 5.69795 7.94333 5.72324 7.98994 5.73948C8.03656 5.75573 8.08592 5.76261 8.13521 5.75974C8.18449 5.75686 8.23272 5.74429 8.27713 5.72273ZM11.9997 3.37313C12.2322 3.37337 12.4589 3.44554 12.6488 3.57976C12.8387 3.71397 12.9824 3.90364 13.0602 4.12276L10.9391 4.12201C11.0171 3.90305 11.1608 3.71355 11.3507 3.57949C11.5406 3.44542 11.7672 3.37334 11.9997 3.37313Z" fill="#212121"/>
<path d="M7.24819 9.24942C7.32728 9.16116 7.40883 9.07498 7.49282 8.99088C8.16587 8.31959 8.97984 7.80646 9.87575 7.48868C9.9222 7.47228 9.96497 7.44689 10.0016 7.41396C10.0383 7.38103 10.0681 7.34121 10.0893 7.29676C10.1106 7.25232 10.1229 7.20412 10.1255 7.15493C10.1281 7.10573 10.121 7.0565 10.1046 7.01004C10.0882 6.96359 10.0628 6.92082 10.0299 6.88417C9.99699 6.84753 9.95716 6.81773 9.91272 6.79647C9.86827 6.77522 9.82007 6.76293 9.77088 6.7603C9.72168 6.75767 9.67245 6.76476 9.626 6.78116C8.62459 7.13647 7.71479 7.71014 6.96254 8.4606C6.86842 8.55435 6.77736 8.65054 6.68935 8.74917C6.62301 8.82328 6.58883 8.92071 6.59432 9.02001C6.59982 9.11932 6.64454 9.21238 6.71864 9.27872C6.79275 9.34506 6.89017 9.37924 6.98948 9.37374C7.08879 9.36825 7.18185 9.32352 7.24819 9.24942Z" fill="#212121"/>
<path d="M11.9981 21.3785H11.993C10.9296 21.3773 9.88839 21.0741 8.99059 20.5043C8.09279 19.9344 7.37532 19.1212 6.92168 18.1595C6.67505 17.6519 6.51206 17.1077 6.43901 16.5481C6.35045 16.015 6.35107 15.4708 6.44084 14.9379C6.63306 13.6018 7.3 12.3797 8.31958 11.4952C9.33915 10.6106 10.6432 10.1229 11.993 10.1211H11.9981C12.7378 10.1194 13.4704 10.2645 14.1536 10.5478C14.8369 10.8312 15.4571 11.2473 15.9784 11.772C16.8357 12.6317 17.3913 13.7461 17.5619 14.9482C17.6419 15.4811 17.6416 16.023 17.5612 16.5558C17.4876 17.114 17.3246 17.6567 17.0785 18.1631C16.6234 19.1254 15.9042 19.9385 15.0047 20.5078C14.1052 21.0771 13.0626 21.379 11.9981 21.3785ZM11.9981 10.8711H11.9937C10.823 10.8727 9.69208 11.2962 8.80832 12.064C7.92456 12.8318 7.34718 13.8924 7.18206 15.0514C7.10466 15.5103 7.10415 15.9789 7.18056 16.4379C7.24329 16.9236 7.3844 17.3959 7.5984 17.8365C7.99112 18.6705 8.61279 19.3758 9.39096 19.8702C10.1691 20.3645 11.0718 20.6275 11.9937 20.6285H11.9981C12.921 20.6291 13.8251 20.3673 14.6048 19.8735C15.3845 19.3797 16.0077 18.6744 16.4017 17.8398C16.6145 17.4025 16.7552 16.9336 16.8185 16.4515C16.8893 15.989 16.8898 15.5185 16.82 15.0558C16.677 14.0124 16.195 13.0449 15.4482 12.3023C14.9962 11.8475 14.4586 11.4869 13.8664 11.2412C13.2742 10.9956 12.6392 10.8698 11.9981 10.8711ZM11.9955 19.874C11.1872 19.875 10.3966 19.6369 9.72319 19.1896C9.67696 19.1589 9.63814 19.1182 9.60952 19.0706C9.5809 19.0231 9.5632 18.9697 9.5577 18.9145C9.5522 18.8592 9.55904 18.8034 9.57771 18.7511C9.59639 18.6989 9.62644 18.6514 9.6657 18.6121L14.863 13.4148C14.9022 13.3756 14.9496 13.3456 15.0018 13.327C15.0541 13.3083 15.1098 13.3014 15.165 13.3068C15.2201 13.3123 15.2734 13.3299 15.321 13.3583C15.3686 13.3868 15.4093 13.4255 15.4401 13.4716C15.732 13.9122 15.9366 14.4048 16.0429 14.9225C16.1512 15.4671 16.1514 16.0276 16.0436 16.5723L16.0429 16.5774C15.9176 17.1766 15.6606 17.7403 15.2907 18.2279C15.1788 18.3866 15.0525 18.5345 14.9135 18.67C14.5301 19.0525 14.075 19.3558 13.5743 19.5624C13.0737 19.769 12.5372 19.8749 11.9955 19.874ZM10.5431 18.7952C11.1727 19.0954 11.8796 19.1935 12.5671 19.0762C13.2546 18.9588 13.8889 18.6317 14.3832 18.1397C14.4939 18.032 14.5944 17.9143 14.6835 17.7881C14.9904 17.3857 15.2038 16.9199 15.3083 16.4247C15.4558 15.7045 15.3637 14.9557 15.0461 14.2927L10.5431 18.7952ZM8.87322 18.1946C8.86113 18.1946 8.84868 18.1939 8.83623 18.1928C8.78102 18.1873 8.72772 18.1697 8.68016 18.1411C8.6326 18.1125 8.59197 18.0738 8.5612 18.0276C8.26932 17.5873 8.0648 17.095 7.95879 16.5774C7.84233 16.0317 7.84233 15.4675 7.95879 14.9218C8.09292 14.2597 8.38784 13.6407 8.81754 13.1194C9.24725 12.5981 9.79856 12.1905 10.4229 11.9325C11.0473 11.6744 11.7255 11.5739 12.3978 11.6397C13.0702 11.7056 13.716 11.9357 14.2785 12.31C14.3246 12.3409 14.3633 12.3816 14.3918 12.4292C14.4203 12.4768 14.4379 12.5301 14.4433 12.5854C14.449 12.6406 14.4424 12.6964 14.4237 12.7486C14.4051 12.8009 14.375 12.8484 14.3356 12.8875L9.13835 18.0848C9.06803 18.1551 8.97266 18.1946 8.87322 18.1946ZM12.001 12.3737C11.2221 12.3711 10.4664 12.639 9.8631 13.1316C9.25976 13.6243 8.84619 14.3112 8.69304 15.0749C8.59789 15.5188 8.59776 15.9778 8.69268 16.4218V16.4229C8.74887 16.6938 8.83714 16.957 8.95561 17.207L13.4582 12.7044C13.0034 12.4864 12.5054 12.3734 12.001 12.3737Z" fill="#212121"/>
<path d="M6.80273 6.52539C7.00984 6.52539 7.17773 6.3575 7.17773 6.15039C7.17773 5.94328 7.00984 5.77539 6.80273 5.77539C6.59563 5.77539 6.42773 5.94328 6.42773 6.15039C6.42773 6.3575 6.59563 6.52539 6.80273 6.52539Z" fill="#212121"/>
</svg>
