<svg width="56" height="28" viewBox="0 0 56 28" fill="none" xmlns="http://www.w3.org/2000/svg">
<path d="M8.39273 22.1666C8.39273 22.0568 8.50186 21.9745 8.76558 21.9745C8.94746 21.9745 9.14752 22.0111 9.34759 22.13L9.54765 21.7092C9.35668 21.5995 9.04749 21.5354 8.76558 21.5354C8.17448 21.5354 7.82891 21.8099 7.82891 22.1941C7.82891 23.0082 9.05658 22.6697 9.05658 22.999C9.05658 23.1088 8.95655 23.182 8.68373 23.182C8.4382 23.182 8.15629 23.0996 7.98351 22.9807L7.78344 23.4015C7.97441 23.5296 8.31998 23.621 8.65645 23.621C9.26574 23.621 9.61131 23.3558 9.61131 22.9716C9.6204 22.1758 8.39273 22.5142 8.39273 22.1666ZM16.6681 21.8282V21.5629H16.1043V23.6027H16.6954V22.6423C16.6954 22.2489 16.9137 22.0751 17.232 22.0751C17.2774 22.0751 17.3138 22.0751 17.3593 22.0843V21.5354C17.0501 21.5354 16.8136 21.6361 16.6681 21.8282ZM15.0767 22.5691C15.0767 22.9441 14.8767 23.1179 14.6129 23.1179C14.3492 23.1179 14.2037 22.9624 14.2037 22.624V21.5629H13.6126V22.7155C13.6126 23.3466 13.9673 23.6302 14.4765 23.6302C14.7221 23.6302 14.9494 23.5387 15.104 23.3558V23.6027H15.6587V21.5629H15.0676V22.5691H15.0767ZM51.9887 8.61026C51.9887 8.54623 51.9705 8.49134 51.9341 8.4639C51.8978 8.43646 51.8341 8.41816 51.7432 8.41816H51.5158V9.02189H51.6159V8.82065H51.7432L51.8887 9.02189H52.016L51.8614 8.80235C51.9432 8.76576 51.9887 8.70173 51.9887 8.61026ZM51.7341 8.72003H51.6068V8.50049H51.7341C51.7886 8.50049 51.825 8.50964 51.8432 8.52793C51.8614 8.54623 51.8796 8.57367 51.8796 8.61026C51.8796 8.64685 51.8705 8.67429 51.8523 8.69258C51.8341 8.71088 51.7977 8.72003 51.7341 8.72003ZM12.2303 21.5354C11.903 21.5354 11.5756 21.6269 11.3573 21.7824L11.5665 22.1941C11.712 22.0751 11.9393 22.002 12.1485 22.002C12.4668 22.002 12.6123 22.1483 12.6123 22.4044H12.1485C11.5301 22.4044 11.2755 22.6514 11.2755 23.0173C11.2755 23.3741 11.5574 23.6302 12.0303 23.6302C12.3304 23.6302 12.5395 23.5296 12.6487 23.3466V23.6027H13.1943V22.441C13.2034 21.819 12.8396 21.5354 12.2303 21.5354ZM12.6123 22.9533C12.5486 23.1362 12.3758 23.2277 12.1758 23.2277C11.9666 23.2277 11.8484 23.1271 11.8484 22.9807C11.8484 22.8435 11.9393 22.7429 12.2122 22.7429H12.6123V22.9533ZM10.7844 23.1637C10.6298 23.1637 10.5298 23.0722 10.5298 22.8984V22.066H11.03V21.6086H10.5298V21.1147H9.93869V21.6086H9.63859V22.066H9.94778V22.9075C9.94778 23.3924 10.2297 23.6393 10.7026 23.6393C10.8844 23.6393 11.0572 23.5936 11.1845 23.5113L11.03 23.0905C10.9572 23.1362 10.8754 23.1637 10.7844 23.1637ZM6.63762 21.5354C6.01923 21.5354 5.55545 21.9745 5.55545 22.5874C5.55545 23.1911 6.01014 23.6393 6.71037 23.6393C7.07412 23.6393 7.35603 23.5296 7.547 23.31L7.23781 22.9716C7.1014 23.0996 6.94681 23.1728 6.72855 23.1728C6.41936 23.1728 6.20111 23.0173 6.14655 22.7612H7.68341C7.68341 22.7155 7.6925 22.6514 7.6925 22.6057C7.6925 21.9288 7.23781 21.5354 6.63762 21.5354ZM6.14655 22.4044C6.19202 22.1392 6.38299 21.9837 6.64671 21.9837C6.91043 21.9837 7.1014 22.1483 7.14687 22.4044H6.14655ZM52.116 8.31754C52.0069 8.20778 51.8796 8.15289 51.725 8.15289C51.5704 8.15289 51.4431 8.20778 51.3339 8.31754C51.2248 8.42731 51.1703 8.55537 51.1703 8.71088C51.1703 8.86638 51.2248 8.99445 51.3339 9.10421C51.4431 9.21398 51.5704 9.26887 51.725 9.26887C51.8796 9.26887 52.0069 9.21398 52.116 9.10421C52.2251 8.99445 52.2797 8.86638 52.2797 8.71088C52.2706 8.56452 52.216 8.42731 52.116 8.31754ZM52.0615 9.05848C51.9705 9.1591 51.8523 9.20484 51.7159 9.20484C51.5795 9.20484 51.4704 9.1591 51.3703 9.05848C51.2794 8.967 51.2339 8.84809 51.2339 8.71088C51.2339 8.57367 51.2794 8.4639 51.3703 8.36328C51.4613 8.27181 51.5795 8.21692 51.7159 8.21692C51.8523 8.21692 51.9614 8.26266 52.0615 8.36328C52.1524 8.45475 52.1979 8.57367 52.1979 8.71088C52.207 8.84809 52.1615 8.967 52.0615 9.05848ZM10.3934 10.8056C10.0023 10.4763 9.52946 10.3117 8.97474 10.3117C8.42001 10.3117 7.90166 10.4855 7.43788 10.8239C6.97409 11.1715 6.70127 11.6289 6.62852 12.2052H11.0754C11.0118 11.6014 10.7844 11.1258 10.3934 10.8056ZM17.1774 15.0042C17.1774 15.3701 17.3138 15.6537 17.5866 15.8458C17.8594 16.0379 18.2414 16.1385 18.7415 16.1385C19.2417 16.1385 19.6873 15.983 20.0692 15.672C20.4512 15.361 20.6422 14.9494 20.6422 14.4371V13.9432H18.8689C17.7412 13.9432 17.1774 14.2999 17.1774 15.0042ZM5.37357 21.9105C5.37357 21.3159 4.93706 20.95 4.22774 20.95H3.09101V23.6027H3.7003V22.8618H4.22774H4.25502L4.76428 23.6027H5.41904L4.82794 22.752C5.1735 22.5965 5.37357 22.3038 5.37357 21.9105ZM4.20046 22.3679H3.7003V21.444H4.20046C4.57331 21.444 4.76428 21.6178 4.76428 21.9105C4.75519 22.1941 4.57331 22.3679 4.20046 22.3679ZM4.91888 19.5322H29.4632C30.4999 19.5322 31.3547 18.5168 31.382 17.2636C30.4999 18.0686 29.5723 18.4711 28.6084 18.4711C27.6353 18.4711 26.8078 18.1418 26.1349 17.5015C25.471 16.8612 25.1254 15.9739 25.1254 14.867V10.1653H23.9432V8.12545H25.1254V5.07939H27.9718V8.12545H31.382V6.34172C31.382 5.05194 30.5181 4 29.4632 4H4.91888C3.85489 4 3.00007 5.05194 3.00007 6.34172V17.1905C2.99098 18.4802 3.85489 19.5322 4.91888 19.5322ZM18.9507 10.2293C18.4596 10.2293 17.9413 10.33 17.3957 10.5221C16.85 10.7141 16.3862 10.9611 16.0134 11.2538L14.7493 9.41522C16.077 8.44561 17.5957 7.95165 19.3054 7.95165C20.533 7.95165 21.5425 8.26266 22.3154 8.87553C23.0975 9.49755 23.4794 10.4763 23.4794 11.8118V18.3064H20.824V17.0898C20.0965 18.0137 19.1962 18.4711 18.1232 18.4711C17.0501 18.4711 16.1498 18.1601 15.4223 17.5381C14.6948 16.916 14.331 16.0745 14.331 15.0408C14.331 13.998 14.7039 13.2205 15.4587 12.6991C16.2135 12.1777 17.2411 11.9216 18.5506 11.9216H20.6603V11.8667C20.6603 10.7782 20.0965 10.2293 18.9507 10.2293ZM5.29172 9.37863C6.31933 8.42731 7.52881 7.9608 8.92018 7.9608C10.3115 7.9608 11.4937 8.38157 12.4759 9.23228C13.4489 10.083 13.9309 11.2447 13.9309 12.7174V14.2359H6.54668C6.63762 14.7939 6.91953 15.2421 7.41059 15.5988C7.90166 15.9556 8.45639 16.1294 9.06568 16.1294C10.0569 16.1294 10.8754 15.7909 11.5119 15.1232L13.0943 16.8429C11.9484 17.9314 10.6116 18.4711 9.07477 18.4711C7.53791 18.4711 6.26477 17.9954 5.25535 17.0441C4.24593 16.0928 3.74577 14.8122 3.74577 13.2114C3.76396 11.6014 4.27321 10.33 5.29172 9.37863ZM27.9809 14.7481C27.9809 15.1323 28.0809 15.4433 28.281 15.6629C28.4811 15.8824 28.7175 15.9922 28.9994 15.9922C29.5269 15.9922 29.9725 15.7543 30.3362 15.2695L31.3911 17.2545V10.1745H27.9809V14.7481ZM42.0855 10.5038C42.0855 10.4946 42.0764 10.4946 42.0764 10.4855C41.8581 10.1196 41.5944 9.78112 41.2761 9.47011C41.1488 9.34204 41.0124 9.22313 40.876 9.10421C40.8669 9.09507 40.8669 9.09507 40.8578 9.08592C40.3849 8.70173 39.8575 8.40902 39.2755 8.21692C39.2664 8.21692 39.2573 8.20778 39.2482 8.20778C38.7026 8.03398 38.1115 7.9425 37.4749 7.9425H37.4658C37.4567 7.9425 37.4476 7.9425 37.4385 7.9425C36.8111 7.9425 36.2199 8.03398 35.6743 8.20778C35.6652 8.20778 35.6561 8.21692 35.647 8.21692C35.065 8.40902 34.5376 8.69258 34.0647 9.08592C34.0556 9.09507 34.0556 9.09507 34.0465 9.10421C33.9101 9.21398 33.7828 9.3329 33.6555 9.46096C33.3372 9.78112 33.0644 10.1196 32.8461 10.4855C32.8461 10.4946 32.837 10.4946 32.837 10.5038C32.3732 11.2904 32.1368 12.1869 32.1368 13.1839C32.1368 14.6566 32.6461 15.8915 33.6555 16.8977C34.6649 17.904 35.938 18.4071 37.4658 18.4071C38.9936 18.4071 40.2667 17.904 41.2761 16.8977C42.2856 15.8915 42.7948 14.6566 42.7948 13.1839C42.7948 12.1869 42.5584 11.2904 42.0855 10.5038ZM41.6672 13.9066C41.5671 13.934 41.4671 13.9615 41.3762 13.9797C41.1579 14.0255 40.9306 14.0346 40.685 13.998L40.3849 13.9432C40.2394 13.9157 40.1212 13.8883 40.0485 13.8791C39.9393 13.87 39.8575 13.87 39.7847 13.8791C39.7666 13.9432 39.7575 13.998 39.7393 14.0621C39.9575 14.1352 40.1485 14.2267 40.294 14.3273C40.1667 14.3456 40.0121 14.3273 39.8302 14.2725C39.7847 14.2633 39.7393 14.245 39.6847 14.2267C39.6756 14.245 39.6756 14.2633 39.6665 14.2725C39.7666 14.3182 39.8848 14.3548 40.003 14.3914L39.7666 14.428C39.7029 14.4463 39.6392 14.4463 39.5847 14.4463C39.5756 14.4554 39.5756 14.4646 39.5665 14.4828C39.6938 14.556 39.8211 14.6384 39.9666 14.7481L40.3849 15.0957C40.5486 15.2238 40.6941 15.3244 40.8305 15.3976C41.0033 15.4891 41.1761 15.5348 41.358 15.5622C41.0579 15.5348 40.8578 15.5073 40.7487 15.4799C40.5304 15.4342 40.3213 15.3518 40.1121 15.2146C40.0576 15.1872 39.9757 15.1323 39.8575 15.05L39.5938 14.8487C39.5119 14.803 39.4483 14.7756 39.3937 14.7573C39.3573 14.8122 39.3119 14.867 39.2664 14.9219C39.421 15.0683 39.5483 15.2146 39.6392 15.361C39.5119 15.3244 39.3755 15.2421 39.23 15.1232C39.2118 15.1049 39.1755 15.0774 39.1573 15.05C39.1482 15.0591 39.13 15.0774 39.1209 15.0866C39.1845 15.1598 39.2664 15.2329 39.3573 15.297L39.13 15.2421C39.0845 15.2329 39.039 15.2146 39.0027 15.1963C38.9845 15.2055 38.9663 15.2238 38.9481 15.2329C39.0209 15.3336 39.0936 15.4616 39.1664 15.608L39.4119 16.0928C39.5119 16.2849 39.6029 16.4312 39.6938 16.5501C39.8211 16.7057 39.9575 16.8246 40.1121 16.9069C39.8575 16.7697 39.6847 16.6691 39.5938 16.5959C39.4119 16.4678 39.2482 16.3032 39.1118 16.1019C39.0845 16.0562 39.0299 15.9739 38.9663 15.8458C38.8935 15.7177 38.8299 15.6171 38.7935 15.5622C38.7571 15.5074 38.7208 15.4616 38.6844 15.425C38.6207 15.4616 38.548 15.4982 38.4843 15.5348C38.5571 15.7177 38.6025 15.8824 38.6207 16.0379C38.5207 15.9556 38.4388 15.8275 38.357 15.6537C38.3479 15.6354 38.3388 15.6171 38.3297 15.5988C38.3115 15.608 38.2933 15.608 38.2752 15.6171C38.3024 15.6994 38.3388 15.7818 38.3843 15.8641L38.2024 15.7177C38.1751 15.6994 38.1569 15.6811 38.1388 15.6629C38.1115 15.672 38.0842 15.6811 38.0478 15.6903C38.066 15.8092 38.0842 15.9373 38.0933 16.0836L38.1115 16.6233C38.1206 16.8337 38.1478 17.0075 38.1842 17.1539C38.2297 17.3368 38.3115 17.5015 38.4025 17.6478L38.2206 17.4009C38.1569 17.3094 38.0933 17.227 38.0569 17.1539C37.9478 16.9526 37.875 16.7422 37.8296 16.5136C37.8114 16.4587 37.8114 16.3581 37.7932 16.2117C37.775 16.0562 37.775 15.9464 37.7568 15.8824C37.7477 15.8367 37.7386 15.7909 37.7204 15.7543C37.6477 15.7635 37.5658 15.7635 37.4931 15.7635C37.484 15.7635 37.484 15.7635 37.4749 15.7635C37.4658 15.9464 37.4476 16.1111 37.4021 16.2483C37.3476 16.1294 37.3203 15.9739 37.3112 15.7909C37.3112 15.7818 37.3112 15.7635 37.3112 15.7543C37.293 15.7543 37.2748 15.7543 37.2657 15.7543C37.2657 15.8367 37.2566 15.9098 37.2657 15.9922L37.1566 15.7818C37.1475 15.7635 37.1384 15.7452 37.1293 15.736C37.093 15.7269 37.0566 15.7269 37.0202 15.7177C36.9929 15.8275 36.9566 15.9464 36.9111 16.0745L36.7019 16.5776C36.6292 16.7788 36.5746 16.9435 36.5564 17.0898C36.5291 17.2819 36.5291 17.4557 36.5655 17.6295L36.5019 17.3277C36.4837 17.2179 36.4655 17.1264 36.4564 17.035C36.4382 16.8154 36.4473 16.5867 36.511 16.3581C36.5291 16.3032 36.5564 16.2025 36.6019 16.0745C36.6565 15.9281 36.6928 15.8275 36.7019 15.7635C36.711 15.7177 36.7201 15.6812 36.7292 15.6354C36.6474 15.608 36.5746 15.5805 36.5019 15.5439C36.42 15.6994 36.3382 15.8458 36.229 15.9556C36.229 15.8275 36.2563 15.6812 36.3291 15.4982C36.3291 15.4891 36.3382 15.4708 36.3473 15.4616C36.3291 15.4525 36.32 15.4433 36.3109 15.4342C36.2745 15.5073 36.2381 15.5714 36.2109 15.6537L36.1927 15.4159C36.1927 15.3976 36.1927 15.3793 36.1927 15.3518C36.1654 15.3336 36.1381 15.3061 36.1108 15.2878C36.0381 15.3793 35.9562 15.4708 35.8562 15.5714L35.4652 15.9556C35.3106 16.1019 35.2014 16.23 35.1196 16.3581C35.0196 16.5136 34.9377 16.6691 34.9013 16.8429L34.965 16.5593C34.9923 16.4495 35.0196 16.3581 35.0468 16.2757C35.1105 16.0745 35.2287 15.8641 35.3833 15.672C35.4197 15.6263 35.4833 15.5439 35.5834 15.4433L35.8016 15.2055C35.838 15.1689 35.8562 15.1232 35.8835 15.0957C35.8289 15.0408 35.7743 14.986 35.7198 14.9219C35.5743 15.0408 35.4288 15.1323 35.2924 15.1872C35.3469 15.0683 35.4288 14.9494 35.5743 14.8122C35.5834 14.803 35.6016 14.7847 35.6198 14.7756C35.6107 14.7573 35.6016 14.7481 35.5834 14.7298C35.5197 14.7847 35.4561 14.8396 35.3924 14.9036L35.4743 14.6841C35.4833 14.6566 35.5015 14.6292 35.5106 14.6109C35.4924 14.5835 35.4743 14.556 35.4652 14.5377C35.356 14.5926 35.2378 14.6475 35.1014 14.7024L34.5921 14.8853C34.3921 14.9677 34.2284 15.0408 34.1011 15.1232C33.9465 15.2238 33.8101 15.3427 33.71 15.4708L33.8828 15.2329C33.9465 15.1415 34.0192 15.0683 34.0738 15.0042C34.2193 14.8396 34.4103 14.7024 34.6194 14.5835C34.674 14.556 34.7558 14.5194 34.8922 14.4554C35.0287 14.4005 35.1378 14.3548 35.1923 14.3273C35.2469 14.2999 35.2924 14.2725 35.3378 14.245C35.3106 14.1718 35.2833 14.0987 35.2651 14.0255C35.0741 14.0804 34.8922 14.1078 34.7376 14.1078C34.8286 14.0163 34.965 13.9432 35.156 13.8883C35.1742 13.8791 35.2014 13.87 35.2287 13.8608C35.2287 13.8425 35.2196 13.8242 35.2196 13.8059C35.1287 13.8242 35.0377 13.8517 34.9377 13.8974L35.1105 13.7328C35.1378 13.7053 35.1651 13.6779 35.1923 13.6596C35.1923 13.6321 35.1923 13.6047 35.1832 13.5773L34.7467 13.5864L34.2011 13.559L33.6555 13.5773C33.4645 13.6047 33.2917 13.6687 33.1371 13.7511L33.4008 13.5864C33.5009 13.5315 33.5827 13.4949 33.6646 13.4583C33.8737 13.3669 34.092 13.3211 34.3375 13.2937C34.4012 13.2937 34.5012 13.2937 34.6376 13.2937C34.7922 13.3028 34.9013 13.2937 34.9741 13.2937C35.0468 13.2937 35.1105 13.2754 35.1651 13.2663C35.1651 13.1931 35.1742 13.1199 35.1923 13.0467C34.9923 13.0193 34.8013 12.9827 34.6558 12.9095C34.774 12.8638 34.9286 12.8546 35.1196 12.8729C35.1469 12.8729 35.1832 12.8821 35.2196 12.8821C35.2196 12.8638 35.2287 12.8455 35.2287 12.8272C35.1287 12.8089 35.0287 12.7906 34.9195 12.7814L35.1378 12.69C35.1923 12.6717 35.2287 12.6625 35.2742 12.6442C35.2833 12.6259 35.2833 12.6076 35.2924 12.5894C35.1651 12.5436 35.0287 12.4979 34.8741 12.4156L34.3921 12.1594C34.2011 12.068 34.0374 11.9948 33.8919 11.9582C33.71 11.9033 33.5373 11.885 33.3645 11.9033L33.6555 11.8759L33.9556 11.8576C34.1738 11.8576 34.4103 11.9033 34.6467 11.9856C34.7013 12.0039 34.7831 12.0405 34.9195 12.1045C35.0559 12.1686 35.156 12.2052 35.2196 12.2326C35.3015 12.26 35.3651 12.2783 35.4197 12.2783C35.4561 12.2143 35.4924 12.1503 35.5288 12.0954C35.3469 11.9856 35.2014 11.8667 35.0832 11.7386C35.2196 11.7569 35.3651 11.8027 35.5288 11.8942C35.5561 11.9124 35.5925 11.9307 35.6288 11.9582C35.6379 11.9399 35.647 11.9307 35.6561 11.9124C35.5743 11.8576 35.4833 11.8027 35.3742 11.7478L35.6107 11.7661C35.6652 11.7661 35.7198 11.7752 35.7653 11.7844C35.7743 11.7752 35.7925 11.7569 35.8016 11.7478C35.7016 11.6563 35.6016 11.5466 35.4924 11.4185L35.1469 10.9977C35.0105 10.8331 34.8831 10.705 34.7649 10.6135C34.6194 10.4855 34.4648 10.4031 34.292 10.3391L34.5921 10.4306C34.6922 10.4672 34.7922 10.5038 34.8741 10.5403C35.0741 10.6318 35.2651 10.7599 35.447 10.9245C35.4924 10.9611 35.5561 11.0343 35.6561 11.1441C35.7562 11.2538 35.8289 11.3362 35.8744 11.3819C35.938 11.4459 35.9926 11.4825 36.0472 11.5191C36.1017 11.4734 36.1563 11.4368 36.2199 11.391C36.0926 11.2172 36.0017 11.0526 35.9562 10.8879C36.0654 10.9428 36.1745 11.0526 36.3018 11.199C36.32 11.2264 36.3473 11.263 36.3745 11.2996C36.3927 11.2904 36.4018 11.2813 36.42 11.2721C36.3655 11.1898 36.3018 11.0983 36.229 11.0069L36.4473 11.1075C36.5019 11.1349 36.5473 11.1624 36.5837 11.1898C36.6019 11.1807 36.611 11.1807 36.6292 11.1715C36.5746 11.0435 36.5291 10.9062 36.4746 10.7324L36.3382 10.2019C36.2836 10.0007 36.2199 9.836 36.1563 9.70794C36.0654 9.53414 35.9562 9.39693 35.8289 9.26887L36.0563 9.47011C36.1381 9.54329 36.2109 9.61647 36.2745 9.6805C36.4109 9.84515 36.5382 10.0372 36.6292 10.2659C36.6474 10.3208 36.6837 10.4123 36.7292 10.5495C36.7747 10.6867 36.811 10.7965 36.8292 10.8605C36.8656 10.952 36.902 11.016 36.9384 11.0617C37.002 11.0434 37.0748 11.0252 37.1384 11.016C37.1021 10.8056 37.0748 10.6044 37.093 10.4306C37.1657 10.5312 37.2294 10.6684 37.2748 10.8514C37.2839 10.8879 37.293 10.9428 37.3021 10.9886C37.3203 10.9886 37.3385 10.9886 37.3567 10.9886C37.3476 10.8788 37.3203 10.769 37.293 10.6501L37.4476 10.8331C37.4931 10.8788 37.5204 10.9337 37.5476 10.9794C37.5567 10.9794 37.5749 10.9794 37.584 10.9794C37.584 10.8422 37.5931 10.6867 37.6295 10.5038L37.7204 9.97321C37.7568 9.76282 37.775 9.58902 37.7659 9.44267C37.7568 9.25972 37.7113 9.08592 37.6568 8.93042L37.775 9.18654C37.8205 9.28716 37.8568 9.38778 37.875 9.46096C37.9387 9.6622 37.9751 9.89089 37.966 10.1379C37.966 10.1927 37.9569 10.2934 37.9387 10.4306C37.9205 10.5861 37.9114 10.6959 37.9114 10.7599C37.9023 10.8697 37.9114 10.9428 37.9296 11.0069C37.9932 11.016 38.066 11.0343 38.1297 11.0526C38.1751 10.8331 38.2388 10.641 38.3388 10.4855C38.3661 10.6135 38.3661 10.7599 38.3297 10.9428C38.3206 10.9886 38.3115 11.0434 38.2934 11.0983C38.3115 11.1075 38.3206 11.1075 38.3388 11.1166C38.3752 11.0069 38.4025 10.8879 38.4207 10.7599L38.4934 10.9886C38.5116 11.0617 38.5207 11.1258 38.5207 11.1898C38.5298 11.1898 38.5389 11.199 38.548 11.199C38.6025 11.0709 38.6844 10.9154 38.7935 10.7599L39.0936 10.3025C39.2027 10.1287 39.2937 9.97321 39.3482 9.836C39.421 9.65305 39.4574 9.47926 39.4574 9.30546V9.61647C39.4574 9.72623 39.4483 9.81771 39.4392 9.90918C39.4119 10.1287 39.3482 10.3483 39.2391 10.5678C39.2209 10.6135 39.1664 10.6959 39.0936 10.8239C39.0209 10.952 38.9572 11.0434 38.9299 11.1075C38.8844 11.2172 38.8481 11.2996 38.839 11.3636C38.8935 11.4002 38.939 11.4368 38.9936 11.4734C39.13 11.2813 39.2755 11.1258 39.4301 11.016C39.4028 11.1441 39.33 11.2813 39.23 11.4368C39.2027 11.4734 39.1664 11.5283 39.1209 11.574C39.13 11.5831 39.1482 11.5923 39.1573 11.6014C39.2391 11.51 39.321 11.4093 39.3937 11.2904L39.3664 11.5283C39.3573 11.6197 39.3301 11.6929 39.3028 11.7478L39.3119 11.7569C39.421 11.6563 39.5574 11.5466 39.7302 11.4368L40.194 11.1441C40.3667 11.0252 40.5122 10.9154 40.6123 10.8148C40.7487 10.6867 40.8578 10.5403 40.9306 10.3757L40.8033 10.6501C40.7578 10.7599 40.7123 10.8422 40.6668 10.9154C40.5577 11.1075 40.4031 11.2813 40.2212 11.4368C40.1758 11.4734 40.0939 11.5283 39.9757 11.6197C39.8484 11.7021 39.7575 11.7661 39.7029 11.8118C39.612 11.8942 39.5574 11.9582 39.521 12.0222V12.0314C39.5483 12.0771 39.5847 12.132 39.612 12.1777C39.8211 12.0588 40.0212 11.9765 40.2122 11.9307C40.1394 12.0405 40.0212 12.132 39.8484 12.2418C39.8029 12.2692 39.7484 12.2966 39.6847 12.3332C39.6938 12.3515 39.7029 12.3607 39.7029 12.379C39.8211 12.3332 39.9302 12.2692 40.0576 12.196L39.9302 12.3973C39.8757 12.4796 39.8302 12.5345 39.7756 12.5802V12.5894C39.9121 12.5436 40.0848 12.4979 40.294 12.4613L40.8396 12.379C41.0488 12.3424 41.2216 12.3058 41.3671 12.2509C41.549 12.1869 41.7126 12.0954 41.84 11.9765L41.6126 12.1777L41.3762 12.3698C41.1943 12.4979 40.9942 12.5894 40.7487 12.6625L40.4486 12.7266C40.3031 12.7449 40.1849 12.7723 40.1212 12.7906C40.003 12.818 39.9121 12.8546 39.8575 12.9004C39.8575 12.9004 39.8575 12.9095 39.8484 12.9095C39.8575 12.9735 39.8666 13.0284 39.8757 13.0925C40.1121 13.065 40.3395 13.065 40.5122 13.1016C40.4031 13.1748 40.2485 13.2205 40.0576 13.2388L39.8757 13.248C39.8757 13.2663 39.8757 13.2845 39.8757 13.3028C39.9939 13.3028 40.1212 13.2937 40.2576 13.2663L40.0667 13.4035C39.9939 13.4492 39.9302 13.4766 39.8666 13.4949C39.8666 13.5041 39.8666 13.5132 39.8666 13.5132C40.0121 13.5224 40.1849 13.559 40.3758 13.6047L40.9124 13.7511C41.1215 13.8059 41.2943 13.8425 41.4489 13.8425C41.6399 13.8608 41.8218 13.8334 41.9945 13.7877L41.6672 13.9066ZM38.6571 21.7001C38.6571 21.5354 38.7935 21.3982 39.1573 21.3982C39.3937 21.3982 39.6392 21.4623 39.8848 21.6086L40.0757 21.1421C39.8302 20.9866 39.4937 20.9043 39.1573 20.9043C38.4116 20.9043 38.0478 21.2793 38.0478 21.7275C38.0478 22.7155 39.5847 22.3679 39.5847 22.871C39.5847 23.0356 39.4392 23.1545 39.0754 23.1545C38.7571 23.1545 38.4298 23.0448 38.2024 22.8801L37.9932 23.3466C38.2297 23.5296 38.648 23.6576 39.0663 23.6576C39.8211 23.6576 40.1849 23.2826 40.1849 22.8344C40.194 21.8465 38.6571 22.1849 38.6571 21.7001ZM35.8653 21.5354C35.2469 21.5354 34.7831 21.9745 34.7831 22.5874C34.7831 23.1911 35.2378 23.6393 35.938 23.6393C36.3018 23.6393 36.5837 23.5296 36.7747 23.31L36.4655 22.9716C36.3291 23.0996 36.1745 23.1728 35.9562 23.1728C35.647 23.1728 35.4288 23.0173 35.3742 22.7612H36.9111C36.9111 22.7155 36.9202 22.6514 36.9202 22.6057C36.9202 21.9288 36.4564 21.5354 35.8653 21.5354ZM35.3651 22.4044C35.4106 22.1392 35.6016 21.9837 35.8653 21.9837C36.129 21.9837 36.32 22.1483 36.3654 22.4044H35.3651ZM40.4577 23.6027H41.0488V21.5629H40.4577V23.6027ZM47.8237 23.6027H48.4148V20.7945H47.8237V23.6027ZM33.9101 21.7733C33.7646 21.6086 33.5554 21.5263 33.3008 21.5263C32.7279 21.5263 32.2914 21.9379 32.2914 22.5782C32.2914 23.2186 32.7279 23.6302 33.3008 23.6302C33.5736 23.6302 33.7828 23.5387 33.9374 23.3649V23.6027H34.5012V20.7945H33.9101V21.7733ZM33.4008 23.1454C33.1098 23.1454 32.8825 22.935 32.8825 22.5782C32.8825 22.2215 33.1098 22.0111 33.4008 22.0111C33.6919 22.0111 33.9192 22.2215 33.9192 22.5782C33.9192 22.935 33.6919 23.1454 33.4008 23.1454ZM44.0861 21.5354C43.7769 21.5354 43.5132 21.6635 43.3586 21.8647C43.2131 21.6452 42.9767 21.5354 42.6948 21.5354C42.4311 21.5354 42.2128 21.6269 42.0582 21.8007V21.5629H41.4944V23.6027H42.0855V22.5782C42.0855 22.2123 42.2674 22.0477 42.5311 22.0477C42.7766 22.0477 42.913 22.2032 42.913 22.5325V23.6119H43.5041V22.5782C43.5041 22.2123 43.686 22.0477 43.9497 22.0477C44.1862 22.0477 44.3317 22.2032 44.3317 22.5325V23.6119H44.9228V22.441C44.9137 21.8099 44.5681 21.5354 44.0861 21.5354ZM40.7578 20.6207C40.5395 20.6207 40.394 20.7671 40.394 20.95C40.394 21.133 40.5395 21.2793 40.7578 21.2793C40.976 21.2793 41.1215 21.133 41.1215 20.9409C41.1215 20.7579 40.976 20.6207 40.7578 20.6207ZM46.5324 21.5354C46.2596 21.5354 46.0413 21.6269 45.8958 21.8007V21.5629H45.332V24.3345H45.9231V23.3832C46.0777 23.5479 46.2778 23.6302 46.5324 23.6302C47.1053 23.6302 47.5418 23.2186 47.5418 22.5782C47.5418 21.9379 47.1053 21.5354 46.5324 21.5354ZM46.4324 23.1454C46.1413 23.1454 45.914 22.935 45.914 22.5782C45.914 22.2215 46.1323 22.0111 46.4324 22.0111C46.7234 22.0111 46.9507 22.2215 46.9507 22.5782C46.9507 22.935 46.7234 23.1454 46.4324 23.1454ZM29.2086 20.95L28.2355 22.5965L27.2534 20.95H26.7532V23.6027H27.3262V22.0477L28.0991 23.3283H28.3719L29.1449 22.0203V23.6119H29.7178L29.7087 20.9592H29.2086V20.95ZM21.0514 21.5354C20.7786 21.5354 20.5421 21.6269 20.3784 21.8007V21.5629H19.8146V23.6027H20.4057V22.5965C20.4057 22.2215 20.6058 22.0477 20.8877 22.0477C21.1514 22.0477 21.2969 22.2032 21.2969 22.5325V23.6119H21.888V22.441C21.888 21.8099 21.5243 21.5354 21.0514 21.5354ZM23.2248 23.1637C23.0702 23.1637 22.9702 23.0722 22.9702 22.8984V22.066H23.4704V21.6086H22.9702V21.1147H22.3791V21.6086H22.0699V22.066H22.3791V22.9075C22.3791 23.3924 22.661 23.6393 23.1339 23.6393C23.3158 23.6393 23.4885 23.5936 23.6159 23.5113L23.4613 23.0905C23.3976 23.1362 23.3158 23.1637 23.2248 23.1637ZM18.4142 21.5354C18.0868 21.5354 17.7594 21.6269 17.5412 21.7824L17.7503 22.1941C17.8958 22.0751 18.1232 22.002 18.3323 22.002C18.6506 22.002 18.7961 22.1483 18.7961 22.4044H18.3323C17.7139 22.4044 17.4593 22.6514 17.4593 23.0173C17.4593 23.3741 17.7412 23.6302 18.2141 23.6302C18.5142 23.6302 18.7234 23.5296 18.8325 23.3466V23.6027H19.3781V22.441C19.3963 21.819 19.0325 21.5354 18.4142 21.5354ZM18.8052 22.9533C18.7415 23.1362 18.5688 23.2277 18.3687 23.2277C18.1595 23.2277 18.0413 23.1271 18.0413 22.9807C18.0413 22.8435 18.1323 22.7429 18.4051 22.7429H18.8052V22.9533ZM49.788 21.5354C49.1696 21.5354 48.7058 21.9745 48.7058 22.5874C48.7058 23.1911 49.1605 23.6393 49.8607 23.6393C50.2245 23.6393 50.5064 23.5296 50.6974 23.31L50.3882 22.9716C50.2518 23.0996 50.0972 23.1728 49.8789 23.1728C49.5697 23.1728 49.3515 23.0173 49.2969 22.7612H50.8338C50.8338 22.7155 50.8429 22.6514 50.8429 22.6057C50.8429 21.9288 50.3791 21.5354 49.788 21.5354ZM49.2878 22.4044C49.3333 22.1392 49.5243 21.9837 49.788 21.9837C50.0517 21.9837 50.2427 22.1483 50.2882 22.4044H49.2878ZM24.2615 22.1666C24.2615 22.0568 24.3706 21.9745 24.6344 21.9745C24.8162 21.9745 25.0163 22.0111 25.2164 22.13L25.4164 21.7092C25.2255 21.5995 24.9163 21.5354 24.6344 21.5354C24.0433 21.5354 23.6977 21.8099 23.6977 22.1941C23.6977 23.0082 24.9254 22.6697 24.9254 22.999C24.9254 23.1088 24.8253 23.182 24.5525 23.182C24.307 23.182 24.0251 23.0996 23.8523 22.9807L23.6522 23.4015C23.8432 23.5296 24.1888 23.621 24.5252 23.621C25.1345 23.621 25.4801 23.3558 25.4801 22.9716C25.4892 22.1758 24.2615 22.5142 24.2615 22.1666ZM31.0092 21.5354C30.6818 21.5354 30.3544 21.6269 30.1362 21.7824L30.3453 22.1941C30.4908 22.0751 30.7182 22.002 30.9273 22.002C31.2456 22.002 31.3911 22.1483 31.3911 22.4044H30.9273C30.3089 22.4044 30.0543 22.6514 30.0543 23.0173C30.0543 23.3741 30.3362 23.6302 30.8091 23.6302C31.1092 23.6302 31.3184 23.5296 31.4275 23.3466V23.6027H31.9731V22.441C31.9822 21.819 31.6275 21.5354 31.0092 21.5354ZM31.4002 22.9533C31.3365 23.1362 31.1638 23.2277 30.9637 23.2277C30.7545 23.2277 30.6363 23.1271 30.6363 22.9807C30.6363 22.8435 30.7273 22.7429 31.0001 22.7429H31.4002V22.9533ZM49.8062 12.9552C49.4333 12.7266 49.1059 12.5619 48.8422 12.4521C48.5694 12.3424 48.1238 12.196 47.4872 11.9948C46.8507 11.7935 46.396 11.6197 46.1232 11.4642C45.8503 11.3179 45.7139 11.1075 45.7139 10.8422C45.7139 10.3665 46.1504 10.1287 47.0144 10.1287C47.8783 10.1287 48.7513 10.4306 49.6243 11.0343L50.6701 9.14995C49.4879 8.34499 48.2966 7.9425 47.1144 7.9425C45.9231 7.9425 44.9591 8.23522 44.2135 8.82979C43.4678 9.42437 43.0858 10.1836 43.0858 11.1166C43.0858 12.0497 43.4678 12.7631 44.2316 13.2388C44.6045 13.4766 44.941 13.6596 45.232 13.7877C45.523 13.9157 45.9504 14.0621 46.5051 14.2359C47.0598 14.4097 47.4872 14.6018 47.7782 14.803C48.0693 15.0042 48.2148 15.2238 48.2148 15.4616C48.2148 15.6994 48.1056 15.8915 47.8965 16.0379C47.6873 16.1843 47.3963 16.2574 47.0326 16.2574C45.8413 16.2574 44.7318 15.8458 43.6769 15.0317L42.4402 16.8063C43.0858 17.3368 43.8224 17.7302 44.6318 18.0046C45.4411 18.279 46.2232 18.4071 46.978 18.4071C48.1056 18.4071 49.0332 18.1052 49.7607 17.5015C50.4882 16.8977 50.8611 16.0928 50.8611 15.0957C50.8611 14.0987 50.5064 13.3852 49.8062 12.9552Z" fill="#F1F3F4"/>
</svg>
