<svg width="15" height="15" viewBox="0 0 15 15" fill="none" xmlns="http://www.w3.org/2000/svg">
<path d="M5 3.75V6.24937H6.875V3.75H8.125V6.24937H10V3.75H11.25V6.24937L11.875 6.25C12.3532 6.24998 12.8134 6.43269 13.1614 6.76081C13.5094 7.08887 13.7188 7.53756 13.7469 8.015L13.75 8.125V8.75C13.75 9.38375 13.5144 9.9625 13.1256 10.4031L13.125 13.125C13.125 13.2907 13.0591 13.4497 12.9419 13.5669C12.8247 13.6841 12.6657 13.75 12.5 13.75H2.5C2.33424 13.75 2.17527 13.6841 2.05806 13.5669C1.94085 13.4497 1.875 13.2907 1.875 13.125V10.4C1.53917 10.0174 1.32734 9.54181 1.2675 9.03625L1.25375 8.87813L1.25 8.75V8.125C1.24998 7.64675 1.43271 7.18656 1.7608 6.83856C2.0889 6.49062 2.53757 6.28119 3.015 6.25313L3.125 6.25L3.75 6.24937V3.75H5ZM5.62625 10.4006L5.5925 10.44C5.18281 10.8873 4.62427 11.1701 4.02125 11.2356L3.8775 11.2469L3.75 11.25C3.53437 11.25 3.325 11.2225 3.125 11.1713V12.5H11.875V11.1713C11.4659 11.2764 11.0367 11.2764 10.6276 11.1712C10.2185 11.0659 9.84262 10.8589 9.535 10.5694L9.44125 10.4756L9.375 10.4025L9.30812 10.4762C8.90287 10.9017 8.36031 11.1704 7.77625 11.235L7.625 11.2475L7.5 11.25C6.84594 11.2509 6.21781 10.9941 5.75187 10.535L5.65813 10.4369L5.62625 10.4006ZM11.875 7.5H3.125C2.97192 7.5 2.82416 7.55625 2.70977 7.65794C2.59537 7.75969 2.52229 7.89981 2.50437 8.05188L2.5 8.125V8.73187L2.50187 8.82375C2.52069 9.142 2.66038 9.44106 2.89239 9.65969C3.12441 9.87831 3.43119 10.0001 3.75 10C4.04934 10.0005 4.33893 9.89356 4.56605 9.69856C4.79317 9.50356 4.94272 9.2335 4.9875 8.9375L4.99687 8.84188L5 8.73187C5.0225 7.95187 6.14188 7.92375 6.24312 8.64812L6.24937 8.73187L6.25187 8.82375C6.26938 9.14119 6.40719 9.44006 6.63725 9.65956C6.86731 9.879 7.17231 10.0025 7.49025 10.005C7.80819 10.0074 8.11513 9.88869 8.34856 9.67281C8.58206 9.457 8.72444 9.16025 8.74687 8.84313L8.75437 8.66687C8.83187 7.94437 9.91813 7.94437 9.99562 8.66687L10.0031 8.84313C10.0255 9.15856 10.1666 9.45381 10.3979 9.66937C10.6293 9.88494 10.9338 10.0048 11.25 10.0048C11.5662 10.0048 11.8707 9.88494 12.1021 9.66937C12.3334 9.45381 12.4745 9.15856 12.4969 8.84313L12.5 8.75V8.125C12.5 7.97194 12.4437 7.82419 12.3421 7.70975C12.2403 7.59538 12.1002 7.52231 11.9481 7.50437L11.875 7.5ZM4.375 0.625C5.2 1.16938 5.41438 1.93 5.28063 2.43C5.21631 2.67019 5.05921 2.87499 4.8439 2.99934C4.62859 3.12371 4.37269 3.15744 4.1325 3.09312C3.89231 3.02881 3.68751 2.87171 3.56316 2.6564C3.43879 2.44109 3.40506 2.18519 3.46938 1.945C3.65625 1.25125 4.375 1.5625 4.375 0.625ZM7.5 0.625C8.325 1.16938 8.53938 1.93 8.40563 2.43C8.34131 2.67019 8.18419 2.87499 7.96887 2.99934C7.75356 3.12371 7.49769 3.15744 7.2575 3.09312C7.01731 3.02881 6.8125 2.87171 6.68813 2.6564C6.56381 2.44109 6.53006 2.18519 6.59437 1.945C6.78125 1.25125 7.5 1.5625 7.5 0.625ZM10.625 0.625C11.45 1.16938 11.6644 1.93 11.5306 2.43C11.4663 2.67019 11.3092 2.87499 11.0939 2.99934C10.8786 3.12371 10.6227 3.15744 10.3825 3.09312C10.1423 3.02881 9.9375 2.87171 9.81313 2.6564C9.68881 2.44109 9.65506 2.18519 9.71937 1.945C9.90625 1.25125 10.625 1.5625 10.625 0.625Z" fill="#212121"/>
</svg>
