<svg width="20" height="17" viewBox="0 0 20 17" fill="none" xmlns="http://www.w3.org/2000/svg">
<path d="M17 15.1111H3V16.0556C3 16.5772 2.55228 17 2 17H1C0.44772 17 0 16.5772 0 16.0556V7.55556L2.51334 1.22565C2.80607 0.488419 3.55231 0 4.386 0H15.614C16.4477 0 17.1939 0.488419 17.4867 1.22565L20 7.55556V16.0556C20 16.5772 19.5523 17 19 17H18C17.4477 17 17 16.5772 17 16.0556V15.1111ZM2.136 7.55556H17.864L15.614 1.88889H4.386L2.136 7.55556ZM4.5 12.2778C5.32843 12.2778 6 11.6435 6 10.8611C6 10.0787 5.32843 9.44444 4.5 9.44444C3.67157 9.44444 3 10.0787 3 10.8611C3 11.6435 3.67157 12.2778 4.5 12.2778ZM15.5 12.2778C16.3284 12.2778 17 11.6435 17 10.8611C17 10.0787 16.3284 9.44444 15.5 9.44444C14.6716 9.44444 14 10.0787 14 10.8611C14 11.6435 14.6716 12.2778 15.5 12.2778Z" fill="#666666"/>
</svg>
