<svg width="27" height="27" viewBox="0 0 27 27" fill="none" xmlns="http://www.w3.org/2000/svg">
<path d="M18 0C20.5773 0 22.6667 2.08933 22.6667 4.66667C22.6667 4.96905 22.6379 5.26472 22.5829 5.55109L22.5631 5.63921C24.9475 6.43295 26.6667 8.68237 26.6667 11.3333C26.6667 13.8321 25.1392 15.9741 22.9671 16.8765L21.5191 25.5525C21.4119 26.1955 20.8556 26.6667 20.2039 26.6667H6.46284C5.81105 26.6667 5.2548 26.1955 5.14764 25.5525L3.776 17.3253C1.66523 17.2049 0 15.4636 0 13.3333C0 11.5901 1.11503 10.1075 2.67075 9.55951L2.66667 9.33333C2.66667 4.91505 6.24839 1.33333 10.6667 1.33333C11.8949 1.33333 13.0587 1.61015 14.0987 2.1048C14.9312 0.837987 16.3677 0 18 0ZM9.33333 17.3333H6.48L7.592 24H9.33333V17.3333ZM14.6667 17.3333H12V24H14.6667V17.3333ZM20.1853 17.3333H17.3333V24H19.0733L20.1853 17.3333ZM10.6667 4C7.8104 4 5.47856 6.24529 5.33947 9.02331L5.33289 9.28525L5.33697 9.51143C5.3564 10.5884 4.72712 11.5635 3.75547 11.9956L3.55667 12.0747C3.02828 12.2608 2.66667 12.7629 2.66667 13.3333C2.66667 14.0697 3.26363 14.6667 4 14.6667H20.6667C22.5076 14.6667 24 13.1743 24 11.3333C24 9.49239 22.5076 8 20.6667 8C20.2191 8 19.7889 8.08692 19.3923 8.25279L19.1584 8.36172C17.8695 9.02576 16.3004 8.53554 15.6079 7.28955L15.5149 7.10645C14.6501 5.22811 12.7704 4 10.6667 4ZM18 2.66667C17.2715 2.66667 16.634 3.05615 16.2843 3.63824C16.9685 4.31267 17.5308 5.10859 17.9372 5.99115C18.5288 5.68641 19.1784 5.47823 19.8651 5.38645C19.9527 5.16351 20 4.92061 20 4.66667C20 3.56209 19.1045 2.66667 18 2.66667Z" fill="#666666"/>
</svg>
