<svg width="30" height="27" viewBox="0 0 30 27" fill="none" xmlns="http://www.w3.org/2000/svg">
<path d="M28 24V26.6667H1.33333V24H2.66667V14.9896C1.05868 13.9133 0 12.0803 0 10C0 8.89715 0.29924 7.83495 0.844293 6.92995L4.4604 0.666667C4.69857 0.254133 5.13875 0 5.61509 0H23.7183C24.1945 0 24.6348 0.254133 24.8729 0.666667L28.4767 6.90896C29.0341 7.83495 29.3333 8.89715 29.3333 10C29.3333 12.0803 28.2747 13.9133 26.6667 14.9896V24H28ZM6.38487 2.66667L3.14131 8.28428C2.83212 8.79791 2.66667 9.3852 2.66667 10C2.66667 11.8409 4.15905 13.3333 6 13.3333C7.37461 13.3333 8.59289 12.4937 9.09572 11.2393C9.5432 10.123 11.1235 10.123 11.5709 11.2393C12.0737 12.4937 13.292 13.3333 14.6667 13.3333C16.0413 13.3333 17.2596 12.4937 17.7624 11.2393C18.2099 10.123 19.7901 10.123 20.2376 11.2393C20.7404 12.4937 21.9587 13.3333 23.3333 13.3333C25.1743 13.3333 26.6667 11.8409 26.6667 10C26.6667 9.3852 26.5012 8.79791 26.1796 8.26328L22.9484 2.66667H6.38487Z" fill="#212121"/>
</svg>
