<svg width="14" height="16" viewBox="0 0 14 16" fill="none" xmlns="http://www.w3.org/2000/svg">
<path d="M12.7037 10.375V2.5C12.7037 1.81075 12.1222 1.25 11.4074 1.25H10.8565V2.08266C11.0553 2.25431 11.1806 2.50362 11.1806 2.78125C11.1806 3.29903 10.7453 3.71875 10.2083 3.71875C9.67137 3.71875 9.23611 3.29903 9.23611 2.78125C9.23611 2.50362 9.36133 2.25431 9.56019 2.08266V1.25H7.61574V2.08266C7.81459 2.25431 7.93981 2.50362 7.93981 2.78125C7.93981 3.29903 7.50455 3.71875 6.96759 3.71875C6.43063 3.71875 5.99537 3.29903 5.99537 2.78125C5.99537 2.50362 6.12059 2.25431 6.31944 2.08266V1.25H4.375V2.11197C4.55493 2.28212 4.66667 2.51903 4.66667 2.78125C4.66667 3.29903 4.2314 3.71875 3.69444 3.71875C3.15749 3.71875 2.72222 3.29903 2.72222 2.78125C2.72222 2.48881 2.86112 2.22772 3.0787 2.05578V1.25H2.59259C1.87781 1.25 1.2963 1.81075 1.2963 2.5V13.5C1.2963 14.1892 1.87781 14.75 2.59259 14.75H11.4074C12.1222 14.75 12.7037 14.1892 12.7037 13.5C12.7037 13.1548 12.9939 12.875 13.3519 12.875C13.7098 12.875 14 13.1548 14 13.5C14 14.8785 12.837 16 11.4074 16H2.59259C1.16304 16 0 14.8785 0 13.5V2.5C0 1.1215 1.16304 0 2.59259 0H11.4074C12.837 0 14 1.1215 14 2.5V10.375C14 10.7202 13.7098 11 13.3519 11C12.9939 11 12.7037 10.7202 12.7037 10.375ZM3.23883 11C2.88086 11 2.59068 11.2798 2.59068 11.625C2.59068 11.9702 2.88086 12.25 3.23883 12.25H8.49074C8.84871 12.25 9.13889 11.9702 9.13889 11.625C9.13889 11.2798 8.84871 11 8.49074 11H3.23883ZM11.4074 9.125C11.4074 8.77981 11.1172 8.5 10.7593 8.5H3.23883C2.88086 8.5 2.59068 8.77981 2.59068 9.125C2.59068 9.47019 2.88086 9.75 3.23883 9.75H10.7593C11.1172 9.75 11.4074 9.47019 11.4074 9.125ZM10.7593 6H3.23883C2.88086 6 2.59068 6.27981 2.59068 6.625C2.59068 6.97019 2.88086 7.25 3.23883 7.25H10.7593C11.1172 7.25 11.4074 6.97019 11.4074 6.625C11.4074 6.27981 11.1172 6 10.7593 6Z" fill="#212121"/>
</svg>
