<svg width="40" height="37" viewBox="0 0 40 37" fill="none" xmlns="http://www.w3.org/2000/svg">
<path fill-rule="evenodd" clip-rule="evenodd" d="M33.5331 13.4264V9.98137L38.046 9.98188L38.1161 8.81575L38.1163 8.80973C38.1294 8.54177 38.3504 4.0091 36.0289 1.55874C35.0623 0.538938 33.7689 0 32.2887 0H4.61334C2.0685 0 0 2.06054 0 4.59262V28.1965C0 29.0327 0.429609 29.7877 1.14867 30.2175C1.86774 30.6472 2.74088 30.6705 3.48098 30.2755L5.0662 29.3742L7.88884 30.8702C8.23908 31.0561 8.6196 31.149 9.00482 31.149C9.38769 31.149 9.76827 31.0561 10.1185 30.8726L12.8291 29.3742L15.6517 30.8726C16.3474 31.2419 17.1832 31.2419 17.8813 30.8702L16.8214 28.6843L13.9988 27.1883C13.303 26.8189 12.4695 26.8189 11.7715 27.1883L9.06088 28.6843L6.23824 27.1906C5.54249 26.8189 4.7067 26.8189 4.00861 27.1883L2.48872 27.9944V4.59211C2.48872 3.42598 3.4413 2.47817 4.61328 2.47817H31.0443V13.4264H33.5331ZM23.4297 29.3652H30.4709V36.3688H32.9597V29.3652H40.0009V26.8865H32.9597V19.8828H30.4709V26.8865H23.4297V29.3652ZM33.5312 7.5052V2.75C33.7834 2.87312 34.0075 3.0427 34.213 3.25641C35.1888 4.28785 35.525 6.16945 35.6138 7.50518L33.5312 7.5052ZM25.9703 10.3927H7.55469V7.91406H25.9703V10.3927ZM7.55469 15.9084H25.9703V13.4297H7.55469V15.9084ZM20.547 21.424H7.55469V18.9453H20.547V21.424Z" fill="white"/>
</svg>
