<svg width="40" height="40" viewBox="0 0 40 40" fill="none" xmlns="http://www.w3.org/2000/svg">
<path fill-rule="evenodd" clip-rule="evenodd" d="M30.0052 26.6719V18.3385C30.0052 13.2219 27.2885 8.93854 22.5052 7.80521V6.67188C22.5052 5.28854 21.3885 4.17188 20.0052 4.17188C18.6219 4.17188 17.5052 5.28854 17.5052 6.67188V7.80521C12.7385 8.93854 10.0052 13.2052 10.0052 18.3385V26.6719L6.67188 30.0052V31.6719H33.3385V30.0052L30.0052 26.6719ZM20.0052 36.6771C21.8385 36.6771 23.3385 35.1771 23.3385 33.3438H16.6719C16.6719 35.1771 18.1719 36.6771 20.0052 36.6771ZM13.3438 28.3438H26.6771V18.3438C26.6771 14.2104 24.1604 10.8438 20.0104 10.8438C15.8604 10.8438 13.3438 14.2104 13.3438 18.3438V28.3438Z" fill="white"/>
</svg>
