<svg width="40" height="33" viewBox="0 0 40 33" fill="none" xmlns="http://www.w3.org/2000/svg">
<path fill-rule="evenodd" clip-rule="evenodd" d="M34.7299 0V3.62314L40.0023 3.62354V28.3975H37.6266V5.98227H34.7299V28.3975H32.3542V2.35873H8.95312V0H34.7299ZM20.6867 32.4013C21.0096 32.5694 21.3614 32.6556 21.7132 32.6556L21.7132 32.655C22.0628 32.655 22.4146 32.5688 22.7352 32.4008L25.1332 31.1319L26.5381 31.8747C27.2172 32.2372 28.0232 32.2173 28.6845 31.8216C29.3458 31.4282 29.7399 30.7341 29.7399 29.967V5.07812H4.15918C1.86581 5.07812 0 6.93064 0 9.20754V29.9675C0 30.7345 0.396316 31.4287 1.05762 31.8222C1.71887 32.2156 2.52045 32.2377 3.20176 31.8774L4.60896 31.1325L7.00469 32.4013C7.64593 32.7396 8.41189 32.7396 9.05313 32.4013L11.4489 31.1325L13.8468 32.4013C14.4881 32.7396 15.254 32.7396 15.8953 32.4013L18.291 31.1325L20.6867 32.4013ZM11.4482 28.7397C11.8022 28.7397 12.154 28.8259 12.4746 28.9961L14.8704 30.2628L17.2683 28.9961C17.9051 28.6535 18.6732 28.6557 19.3168 28.9961L21.7125 30.2628L24.1082 28.9961C24.7495 28.6557 25.5154 28.6579 26.1567 28.9961L27.3657 29.635V7.42969H4.15845C3.1743 7.42969 2.375 8.22327 2.375 9.20037V29.6349L3.58623 28.9961C4.22747 28.6556 4.99343 28.6578 5.63467 28.9961L8.02818 30.2627L10.4261 28.9961C10.7468 28.8259 11.0963 28.7396 11.4481 28.7396L11.4482 28.7397ZM14.5386 24.7863H15.6095V23.8135C17.9945 23.6099 19.3389 22.4184 19.3389 20.503C19.3389 18.8666 18.3667 17.8636 16.4223 17.4413L15.6095 17.283V14.4702C16.4223 14.5833 16.9995 15.1715 17.0223 15.8879H19.1338C19.1034 14.1534 17.7363 12.9167 15.6095 12.7282V11.6875H14.5386V12.7206C12.26 12.9016 10.9232 14.0931 10.9232 15.9407C10.9232 17.5092 11.903 18.5574 13.7335 18.9797L14.5386 19.1682V22.1092C13.574 22.0037 12.9208 21.4306 12.8676 20.6463H10.6953C10.7029 22.4938 12.1536 23.6853 14.5386 23.8211V24.7863ZM17.1892 20.7391C17.1892 20.0076 16.6879 19.5627 15.6094 19.3516V22.1116C16.6044 22.0513 17.1892 21.5385 17.1892 20.7391ZM14.5375 17.0626C13.6109 16.8665 13.1172 16.4141 13.1172 15.7505C13.1172 15.0341 13.7096 14.5062 14.5375 14.4609V17.0626Z" fill="white"/>
</svg>
