<svg width="48" height="40" viewBox="0 0 48 40" fill="none" xmlns="http://www.w3.org/2000/svg">
<g clip-path="url(#clip0_7760_211)">
<path d="M24.0153 40C18.6731 40 13.6507 37.9198 9.87326 34.1424C6.09583 30.3649 4.01562 25.3426 4.01562 20.0003C4.01562 14.658 6.09583 9.63564 9.87326 5.8582C13.6507 2.0802 18.6731 0 24.0153 0C29.3576 0 34.38 2.0802 38.1574 5.85764C41.9349 9.63507 44.0151 14.6574 44.0151 19.9997C44.0151 25.342 41.9349 30.3644 38.1574 34.1418C34.38 37.9192 29.3576 39.9994 24.0153 39.9994V40ZM24.0153 7.8742C17.3293 7.8742 11.8893 13.3136 11.8893 20.0003C11.8893 26.6869 17.3287 32.1264 24.0153 32.1264C30.702 32.1264 36.1414 26.6869 36.1414 20.0003C36.1414 13.3136 30.702 7.8742 24.0153 7.8742Z" fill="white"/>
<path d="M42.6011 19.5224C45.3406 19.5224 47.5615 17.3016 47.5615 14.562C47.5615 11.8224 45.3406 9.60156 42.6011 9.60156C39.8615 9.60156 37.6406 11.8224 37.6406 14.562C37.6406 17.3016 39.8615 19.5224 42.6011 19.5224Z" fill="white"/>
<path d="M4.96044 29.4521C7.70001 29.4521 9.92088 27.2313 9.92088 24.4917C9.92088 21.7521 7.70001 19.5312 4.96044 19.5312C2.22086 19.5312 0 21.7521 0 24.4917C0 27.2313 2.22086 29.4521 4.96044 29.4521Z" fill="white"/>
</g>
<defs>
<clipPath id="clip0_7760_211">
<rect width="47.5588" height="40" fill="white"/>
</clipPath>
</defs>
</svg>
