<svg width="11" height="13" viewBox="0 0 11 13" fill="none" xmlns="http://www.w3.org/2000/svg">
<path d="M5.11628 12.8434C5.11649 12.8434 5.11671 12.8433 5.11692 12.8433C5.11713 12.8433 5.11732 12.8434 5.11754 12.8434C5.25732 12.8434 5.39545 12.8362 5.53164 12.8223C8.1606 12.6097 10.2358 10.4065 10.2358 7.72381C10.2358 5.62615 8.97007 3.76811 7.05188 2.98974L7.68469 2.19879C7.68881 2.19363 7.69088 2.18746 7.69455 2.18205C7.69614 2.17975 7.699 2.17884 7.7005 2.17647C7.70251 2.17331 7.70203 2.16939 7.70389 2.16618C7.72314 2.13294 7.73586 2.09712 7.73897 2.05955C7.73933 2.05493 7.73848 2.05068 7.73862 2.04604C7.73978 2.00768 7.73369 1.96914 7.71738 1.93293C7.71693 1.93197 7.71724 1.93085 7.7168 1.92988L7.71558 1.92727L6.88725 0.14838C6.84511 0.0579447 6.75431 0 6.65446 0H3.58034C3.48049 0 3.38969 0.0579447 3.34756 0.14838L2.51953 1.9266C2.51946 1.92675 2.51934 1.92685 2.51926 1.927C2.51917 1.92718 2.51919 1.92739 2.51909 1.92756L2.51801 1.92988C2.5176 1.93073 2.51789 1.93172 2.5175 1.93257C2.50102 1.96904 2.49483 2.00791 2.49609 2.04656C2.49622 2.05091 2.49541 2.05493 2.49576 2.05928C2.49883 2.09689 2.51153 2.13273 2.53088 2.16607C2.53275 2.16931 2.53227 2.1733 2.5343 2.17647C2.53585 2.17888 2.53876 2.17981 2.54037 2.18215C2.544 2.18748 2.54603 2.19357 2.55011 2.19867L3.18029 2.98773C1.26412 3.76724 0 5.62569 0 7.72381C3.16667e-08 10.5467 2.29525 12.8434 5.11628 12.8434ZM3.80845 2.95112C3.80232 2.94299 3.79675 2.93502 3.78978 2.92776L3.28459 2.29525H6.94946L5.11553 4.58761L3.80845 2.95112ZM5.11754 5.25587C7.06762 5.25587 8.65422 6.84247 8.65422 8.79282C8.65422 10.6209 7.26002 12.1295 5.4792 12.3112C5.35929 12.3206 5.23921 12.3296 5.11692 12.3296C3.16686 12.3292 1.58059 10.7428 1.58059 8.79282C1.58059 6.84247 3.16719 5.25587 5.11754 5.25587ZM9.72208 7.72381C9.72208 8.76226 9.37251 9.71827 8.79051 10.4895C9.03028 9.97258 9.16795 9.39911 9.16795 8.79282C9.16795 6.73042 7.61757 5.02658 5.62193 4.777L6.71409 3.41192C8.51925 4.07592 9.72208 5.7851 9.72208 7.72381ZM3.74414 0.513733H6.49066L7.08116 1.7815H3.15364L3.74414 0.513733ZM3.5176 3.41008L4.6097 4.7775C2.6155 5.02861 1.06686 6.7316 1.06686 8.79282C1.06686 9.39863 1.2043 9.9717 1.44371 10.4883C0.862677 9.71725 0.513733 8.76172 0.513733 7.72381C0.513733 5.78475 1.71476 4.07536 3.5176 3.41008Z" fill="#212121"/>
</svg>
