<svg width="17" height="18" viewBox="0 0 17 18" fill="none" xmlns="http://www.w3.org/2000/svg">
<path d="M16.6083 11.0132C17.0131 10.6187 16.798 9.92102 16.2264 9.83802L14.7749 9.62708C14.7222 9.61942 14.6768 9.58641 14.6532 9.53863L14.004 8.22329C13.9729 8.16026 13.9331 8.10383 13.8868 8.05458C13.8868 7.88527 13.8868 2.56317 13.8868 2.41713C13.8868 1.9228 13.4846 1.52065 12.9903 1.52065H12.6409V0.404297C12.6409 0.181371 12.4595 0 12.2366 0H11.2171C10.9941 0 10.8128 0.181371 10.8128 0.404297V1.52065H9.4519V0.404297C9.4519 0.181371 9.27053 0 9.0476 0H8.02807C7.80514 0 7.62377 0.181371 7.62377 0.404297V1.52065H6.26295V0.404297C6.26295 0.181371 6.08157 0 5.85865 0H4.83912C4.61619 0 4.43482 0.181371 4.43482 0.404297V1.52065H3.07396V0.404297C3.07396 0.181371 2.89259 0 2.66966 0H1.65013C1.4272 0 1.24583 0.181371 1.24583 0.404297V1.52065H1.03711C0.465223 1.52065 0 1.98587 0 2.55776V16.9629C0 17.5348 0.465223 18 1.03711 18H2.98579C3.13144 18 3.24946 17.882 3.24946 17.7363C3.24946 17.5907 3.13144 17.4727 2.98579 17.4727H1.03714C0.75607 17.4727 0.527379 17.244 0.527379 16.9629V4.79883H13.3594V7.8402C13.1016 7.84993 12.8787 7.99959 12.7683 8.22329L12.1191 9.53866C12.0959 9.58581 12.0506 9.61935 11.9975 9.62708C10.3888 9.86084 10.5266 9.8389 10.4675 9.85451C10.0191 9.97253 9.82153 10.4867 10.0531 10.8721H2.36194C2.21629 10.8721 2.09827 10.9901 2.09827 11.1357C2.09827 11.2814 2.21629 11.3994 2.36194 11.3994H10.5602L11.2144 12.0371C11.2515 12.0733 11.27 12.1268 11.2608 12.1801L11.0762 13.2566L11.0129 13.6259C10.9164 14.1908 11.5072 14.6179 12.0126 14.3522C13.413 13.6159 13.3214 13.6599 13.3594 13.6537V16.9629C13.3594 17.244 13.1307 17.4727 12.8496 17.4727H4.21625C4.0706 17.4727 3.95258 17.5907 3.95258 17.7363C3.95258 17.882 4.0706 18 4.21625 18H12.8496C13.4215 18 13.8867 17.5348 13.8867 16.9629V13.8932L14.7598 14.3522C14.861 14.4053 14.9688 14.4322 15.0804 14.4322C15.4604 14.4322 15.7696 14.1241 15.7696 13.7453C15.7696 13.6686 15.7612 13.6366 15.7221 13.4088C15.6975 13.2653 15.561 13.169 15.4177 13.1934C15.2742 13.218 15.1778 13.3543 15.2023 13.4979C15.2401 13.7178 15.2422 13.7222 15.2422 13.7453C15.2422 13.8582 15.1178 13.9446 15.0051 13.8853L13.7459 13.2234C13.7458 13.2233 13.7457 13.2232 13.7455 13.2231C13.4917 13.0899 13.2576 13.1017 13.0655 13.2028L11.7671 13.8853C11.6491 13.9475 11.5097 13.8493 11.5327 13.7149L11.7806 12.2693C11.8198 12.0415 11.7403 11.8132 11.5824 11.6594L10.532 10.6355C10.4417 10.5475 10.4842 10.4048 10.5883 10.368C10.5986 10.3643 10.6097 10.3616 10.6217 10.3598L12.0732 10.1489C12.2977 10.1163 12.4916 9.97534 12.592 9.77196L13.2411 8.45662C13.3015 8.33439 13.4732 8.33941 13.531 8.45662L14.1802 9.77193C14.2805 9.97534 14.4745 10.1163 14.699 10.1489L16.1506 10.3598C16.2845 10.3793 16.3361 10.5421 16.2401 10.6355L15.1898 11.6594C15.0576 11.7882 14.9817 11.9681 14.9817 12.1527C14.9817 12.4546 15.1694 12.5225 15.2987 12.5004C15.4298 12.478 15.5416 12.3575 15.5115 12.1803C15.5021 12.1261 15.5212 12.0728 15.5579 12.037L16.6083 11.0132ZM11.3401 0.527344H12.1135V2.78958C12.1135 3.0028 11.94 3.1763 11.7268 3.1763C11.5136 3.1763 11.3401 3.0028 11.3401 2.78958C11.3401 2.54619 11.3401 0.771609 11.3401 0.527344ZM8.15112 0.527344H8.92455V2.78958C8.92455 3.0028 8.75106 3.1763 8.53784 3.1763C8.32461 3.1763 8.15112 3.0028 8.15112 2.78958C8.15112 2.54619 8.15112 0.771609 8.15112 0.527344ZM4.96216 0.527344H5.7356V2.78958C5.7356 3.0028 5.56211 3.1763 5.34888 3.1763C5.13566 3.1763 4.96216 3.0028 4.96216 2.78958C4.96216 2.54619 4.96216 0.771609 4.96216 0.527344ZM1.77318 0.527344H2.54661V2.78958C2.54661 3.0028 2.37312 3.1763 2.15989 3.1763C1.94667 3.1763 1.77318 3.0028 1.77318 2.78958C1.77318 2.54619 1.77318 0.771609 1.77318 0.527344ZM0.527379 4.27148V2.55776C0.527379 2.27668 0.75607 2.04799 1.03714 2.04799H1.24587V2.78958C1.24587 3.29361 1.65589 3.70368 2.15993 3.70368C2.66396 3.70368 3.07399 3.29365 3.07399 2.78961V2.04799H4.43486V2.78958C4.43486 3.29361 4.84488 3.70368 5.34892 3.70368C5.85295 3.70368 6.26298 3.29365 6.26298 2.78961V2.04799H7.62381V2.78958C7.62381 3.29361 8.03384 3.70368 8.53787 3.70368C9.04191 3.70368 9.45193 3.29365 9.45193 2.78961V2.04799H10.8128V2.78958C10.8128 3.29361 11.2228 3.70368 11.7269 3.70368C12.2309 3.70368 12.6409 3.29365 12.6409 2.78961V2.04799H12.9903C13.1939 2.04799 13.3594 2.21358 13.3594 2.41713V4.27148C13.0167 4.27148 0.815309 4.27148 0.527379 4.27148Z" fill="#212121"/>
</svg>
