<svg width="16" height="16" viewBox="0 0 16 16" fill="none" xmlns="http://www.w3.org/2000/svg">
<path d="M14.8158 5.04939L11.1025 4.48835C10.9804 4.46284 10.8827 4.38634 10.8338 4.28433L9.17261 0.765059C8.95274 0.280522 8.48859 0 7.97557 0C7.46255 0 6.9984 0.306024 6.77853 0.765059L5.11734 4.28433C5.06848 4.38634 4.97076 4.46284 4.84862 4.48835L1.13536 5.04939C0.622342 5.12589 0.207044 5.48292 0.060468 5.99296C-0.086108 6.503 0.0360381 7.06404 0.402478 7.42107L3.0897 10.1753C3.16299 10.2518 3.21185 10.3793 3.18742 10.5068L2.55226 14.3831C2.47897 14.9186 2.67441 15.4287 3.0897 15.7347C3.505 16.0407 4.04245 16.0917 4.50661 15.8367L7.82899 14.0006C7.92671 13.9496 8.04886 13.9496 8.17101 14.0006L11.4934 15.8367C11.6888 15.9387 11.9087 15.9897 12.1286 15.9897C12.3973 15.9897 12.666 15.9132 12.9103 15.7092C13.3256 15.4032 13.521 14.8676 13.4477 14.3576L12.8126 10.4813C12.7881 10.3538 12.837 10.2263 12.9103 10.1498L15.5975 7.39557C15.964 7.01304 16.0861 6.4775 15.9395 5.96746C15.793 5.45742 15.3044 5.12589 14.8158 5.04939ZM14.8646 6.70702L12.1774 9.46123C11.8598 9.79275 11.7133 10.2518 11.7865 10.6853L12.4217 14.5616C12.4461 14.7656 12.324 14.8931 12.2751 14.9186C12.2263 14.9441 12.0797 15.0462 11.8843 14.9441L8.56187 13.108C8.36644 13.006 8.14658 12.955 7.95114 12.955C7.75571 12.955 7.51141 13.006 7.34041 13.108L4.01802 14.9441C3.84701 15.0462 3.70044 14.9697 3.65158 14.9186C3.60272 14.8676 3.48057 14.7656 3.505 14.5616L4.14017 10.6853C4.21345 10.2263 4.06688 9.76725 3.7493 9.46123L1.06207 6.70702C0.915494 6.554 0.939924 6.40099 0.964353 6.32449C0.988783 6.24798 1.06207 6.09497 1.2575 6.06947L4.97076 5.50842C5.41049 5.43192 5.77693 5.1514 5.97237 4.74336L7.63356 1.22409C7.73128 1.04558 7.87785 1.02008 7.95114 1.02008C8.02443 1.02008 8.17101 1.04558 8.26872 1.22409L9.92992 4.74336C10.1254 5.1514 10.4918 5.43192 10.9315 5.50842L14.6448 6.06947C14.8402 6.09497 14.9135 6.24798 14.9379 6.32449C14.9868 6.37549 15.0112 6.554 14.8646 6.70702Z" fill="#212121"/>
</svg>
