<svg width="40" height="40" viewBox="0 0 40 40" fill="none" xmlns="http://www.w3.org/2000/svg">
<path fill-rule="evenodd" clip-rule="evenodd" d="M36.1227 15.3333C36.4043 14.5371 37.1556 14.0036 38 14C39.1045 14 40 14.8955 40 16V24C40.0019 24.973 39.3018 25.8053 38.3428 25.9704C37.3838 26.1351 36.446 25.5843 36.1227 24.6667H33.1833C31.7669 28.6403 28.6403 31.7669 24.6667 33.1833V36.1227C25.5843 36.446 26.1351 37.3838 25.9704 38.3428C25.8053 39.3018 24.973 40.0019 24 40H16C15.027 40.0019 14.1947 39.3018 14.0296 38.3428C13.8649 37.3838 14.4157 36.446 15.3333 36.1227V33.1833C11.3597 31.7669 8.23307 28.6403 6.81673 24.6667H3.87728C3.55404 25.5843 2.61621 26.1351 1.65723 25.9704C0.698246 25.8053 -0.00194905 24.973 4.07586e-06 24V16C-0.00194905 15.027 0.698246 14.1947 1.65723 14.0296C2.61621 13.8649 3.55404 14.4157 3.87728 15.3333H6.81673C8.23307 11.3597 11.3597 8.23307 15.3333 6.81673V3.87728C14.4157 3.55404 13.8649 2.61621 14.0296 1.65723C14.1947 0.698246 15.027 -0.00194905 16 4.07586e-06H24C24.973 -0.00194905 25.8053 0.698246 25.9704 1.65723C26.1351 2.61621 25.5843 3.55404 24.6667 3.87728V6.81673C28.6403 8.23307 31.7669 11.3597 33.1833 15.3333H36.1227ZM24.0026 1.33593H16.0026C15.6344 1.33593 15.3359 1.63444 15.3359 2.0026C15.3359 2.37076 15.6344 2.66927 16.0026 2.66927H24.0026C24.3708 2.66927 24.6693 2.37076 24.6693 2.0026C24.6693 1.63444 24.3708 1.33593 24.0026 1.33593ZM16.6719 4H23.3385V6.41796C21.1514 5.86067 18.859 5.86067 16.6719 6.41796V4ZM1.33593 24.0026C1.33593 24.3708 1.63444 24.6693 2.0026 24.6693C2.37076 24.6693 2.66927 24.3708 2.66927 24.0026V16.0026C2.66927 15.6344 2.37076 15.3359 2.0026 15.3359C1.63444 15.3359 1.33593 15.6344 1.33593 16.0026V24.0026ZM4 23.3307V16.6641H6.41796C5.86067 18.8512 5.86067 21.1435 6.41796 23.3307H4ZM15.3359 38.0026C15.3359 38.3708 15.6344 38.6693 16.0026 38.6693H24.0026C24.3708 38.6693 24.6693 38.3708 24.6693 38.0026C24.6693 37.6344 24.3708 37.3359 24.0026 37.3359H16.0026C15.6344 37.3359 15.3359 37.6344 15.3359 38.0026ZM23.3307 36.0039H16.6641V33.5859C18.8512 34.1432 21.1435 34.1432 23.3307 33.5859V36.0039ZM7.33593 20.0026C7.33593 26.9984 13.0072 32.6693 20.0026 32.6693C26.9951 32.6614 32.6614 26.9951 32.6693 20.0026C32.6693 13.0072 26.9984 7.33593 20.0026 7.33593C13.0072 7.33593 7.33593 13.0072 7.33593 20.0026ZM33.5781 16.6641H35.9961V23.3307H33.5781C34.1354 21.1435 34.1354 18.8512 33.5781 16.6641ZM38.0026 24.6693C38.3708 24.6693 38.6693 24.3708 38.6693 24.0026V16.0026C38.6693 15.6344 38.3708 15.3359 38.0026 15.3359C37.6344 15.3359 37.3359 15.6344 37.3359 16.0026V24.0026C37.3359 24.3708 37.6344 24.6693 38.0026 24.6693Z" fill="white"/>
<path fill-rule="evenodd" clip-rule="evenodd" d="M11 19.6667C11 14.8802 14.8802 11 19.6667 11C24.4508 11.0055 28.3278 14.8825 28.3333 19.6667C28.3333 24.4531 24.4531 28.3333 19.6667 28.3333C14.8802 28.3333 11 24.4531 11 19.6667ZM12.3359 19.6693C12.3359 23.7194 15.6191 27.0026 19.6693 27.0026C23.7174 26.9977 26.9977 23.7174 27.0026 19.6693C27.0026 15.6191 23.7194 12.3359 19.6693 12.3359C15.6191 12.3359 12.3359 15.6191 12.3359 19.6693Z" fill="white"/>
</svg>
