<svg width="18" height="18" viewBox="0 0 18 18" fill="none" xmlns="http://www.w3.org/2000/svg">
<path d="M17.1 11.7C16.72 11.6984 16.3819 11.4583 16.2552 11.1H14.7V13.8C14.7 14.297 14.297 14.7 13.8 14.7H11.1V16.2552C11.5129 16.4007 11.7608 16.8227 11.6867 17.2542C11.6124 17.6858 11.2378 18.0009 10.8 18H7.2C6.76216 18.0009 6.3876 17.6858 6.31333 17.2542C6.23921 16.8227 6.48706 16.4007 6.9 16.2552V14.7H4.2C3.70298 14.7 3.3 14.297 3.3 13.8V11.1H1.74478C1.59932 11.5129 1.1773 11.7608 0.745754 11.6867C0.314211 11.6124 -0.000877072 11.2378 1.83414e-06 10.8V7.2C-0.000877072 6.76216 0.314211 6.3876 0.745754 6.31333C1.1773 6.23921 1.59932 6.48706 1.74478 6.9H3.3V4.2C3.3 3.70298 3.70298 3.3 4.2 3.3H6.9V1.74478C6.48706 1.59932 6.23921 1.1773 6.31333 0.745752C6.3876 0.314209 6.76216 -0.000879288 7.2 0H10.8C11.2378 -0.000879288 11.6124 0.314209 11.6867 0.745752C11.7608 1.1773 11.5129 1.59932 11.1 1.74478V3.3H13.8C14.297 3.3 14.7 3.70298 14.7 4.2V6.9H16.2552C16.4007 6.48706 16.8227 6.23921 17.2542 6.31333C17.6858 6.3876 18.0009 6.76216 18 7.2V10.8C18 11.297 17.597 11.7 17.1 11.7ZM7.2 17.4H10.8C10.9657 17.4 11.1 17.2657 11.1 17.1C11.1 16.9343 10.9657 16.8 10.8 16.8H7.2C7.03433 16.8 6.9 16.9343 6.9 17.1C6.9 17.2657 7.03433 17.4 7.2 17.4ZM7.5 16.2H10.5V14.7H7.5V16.2ZM0.900002 6.9C0.734328 6.9 0.600002 7.03433 0.600002 7.2V10.8C0.600002 10.9657 0.734328 11.1 0.900002 11.1C1.06568 11.1 1.2 10.9657 1.2 10.8V7.2C1.2 7.03433 1.06568 6.9 0.900002 6.9ZM1.8 7.5V10.5H3.3V7.5H1.8ZM10.8 0.6H7.2C7.03433 0.6 6.9 0.734327 6.9 0.9C6.9 1.06567 7.03433 1.2 7.2 1.2H10.8C10.9657 1.2 11.1 1.06567 11.1 0.9C11.1 0.734327 10.9657 0.6 10.8 0.6ZM10.5 1.8H7.5V3.3H10.5V1.8ZM14.1 4.2C14.1 4.03433 13.9657 3.9 13.8 3.9H4.2C4.03433 3.9 3.9 4.03433 3.9 4.2V13.8C3.9 13.9657 4.03433 14.1 4.2 14.1H13.8C13.9657 14.1 14.1 13.9657 14.1 13.8V4.2ZM14.7 10.5H16.2V7.5H14.7V10.5ZM17.4 7.2C17.4 7.03433 17.2657 6.9 17.1 6.9C16.9343 6.9 16.8 7.03433 16.8 7.2V10.8C16.8 10.9657 16.9343 11.1 17.1 11.1C17.2657 11.1 17.4 10.9657 17.4 10.8V7.2Z" fill="#212121"/>
</svg>
